<?xml version="1.0" encoding="UTF-8" standalone="no"?>
<!-- Created with Inkscape (http://www.inkscape.org/) -->

<svg
   width="100.91788mm"
   height="102.2715mm"
   viewBox="0 0 100.91789 102.2715"
   version="1.1"
   xml:space="preserve"
   xmlns="http://www.w3.org/2000/svg"
   xmlns:svg="http://www.w3.org/2000/svg"
>
  <g transform="translate(-20.32698,-60.114689)">
    <path
       style="display:inline;fill:#e5a02a;fill-opacity:1"
       d="m 39.919812,88.348885 c -5.194652,-4.16647 -9.473269,-7.61914 -9.508035,-7.672596 -0.07255,-0.111551 0.74245,-1.145045 2.381821,-3.020367 1.17407,-1.343049 3.670136,-3.893456 4.954585,-5.062451 5.567839,-5.067358 11.699616,-8.6388 18.146969,-10.569665 6.199031,-1.856497 12.679598,-2.328549 19.775085,-1.440441 1.790258,0.224077 5.884643,0.97318 6.011278,1.099814 0.02838,0.02838 0.491545,6.546181 0.497686,7.00356 0.0013,0.100418 -12.140393,20.857693 -12.278624,20.991286 -0.0077,0.0074 -4.502301,1.373566 -9.988068,3.035898 -5.485768,1.662329 -10.103218,3.064708 -10.261002,3.116395 l -0.286877,0.09397 z"
    />
    <path
       style="display:inline;fill:#00796B;fill-opacity:1"
       d="m 68.413007,161.51379 c -2.072783,-0.15399 -2.331667,0.2295 2.259343,-3.3469 2.204472,-1.71728 4.008128,-3.16951 4.008128,-3.22716 0,-0.0576 -1.435727,-3.06206 -3.190499,-6.67647 -1.754775,-3.61441 -3.1687,-6.62847 -3.142054,-6.6979 0.02664,-0.0694 2.705873,-3.20844 5.953842,-6.97556 l 5.905394,-6.84931 -3.739803,-16.38077 -3.739804,-16.380769 6.330384,-10.857468 c 4.561972,-7.824401 6.337768,-10.948929 6.356826,-11.184871 0.01455,-0.180073 -0.136853,-1.758635 -0.336439,-3.507914 -0.199583,-1.749277 -0.35253,-3.193135 -0.339883,-3.208568 0.04589,-0.056 5.550955,1.852308 6.826787,2.366476 4.17753,1.683562 8.226766,4.183824 12.722031,7.855412 2.20648,1.802178 3.67079,3.259236 5.64557,5.617597 5.77173,6.892843 9.27632,14.967069 10.86012,25.020665 0.52382,3.32512 0.54113,8.43062 0.0422,12.4414 -0.62293,5.00728 -2.17205,10.07937 -4.49871,14.72947 -0.76389,1.52674 -0.87904,1.73739 -1.79172,3.27782 -2.29448,3.87261 -5.51655,7.97581 -9.0403,11.51252 -3.45321,3.46592 -9.156507,7.07677 -14.506679,9.18444 -4.283916,1.68762 -8.059563,2.60928 -12.949647,3.16111 -1.609389,0.1816 -7.800404,0.26305 -9.635067,0.12675 z"
    />
    <path
       style="display:inline;fill:#6ba085;fill-opacity:1"
       d="m 46.53693,135.74365 c -9.595311,-2.17685 -17.547693,-3.96072 -17.671963,-3.96416 -0.124267,-0.003 -0.905182,0.34644 -1.735365,0.7775 l -1.509422,0.78376 -0.262902,-0.66682 c -1.629891,-4.13404 -2.3161,-6.07727 -3.092842,-8.75841 -3.251584,-11.22374 -2.337479,-21.51442 2.953993,-33.255013 1.00685,-2.233975 3.417975,-6.857013 3.769456,-7.227469 0.08887,-0.09367 2.131531,1.517703 9.871985,7.787566 5.367967,4.348117 9.785905,7.904972 9.817642,7.904125 0.03174,-7.94e-4 4.53943,-1.472057 10.017088,-3.269348 5.47766,-1.797293 9.965737,-3.259399 9.973505,-3.249123 0.07788,0.102997 7.526391,32.283732 7.491574,32.366752 -0.06939,0.16545 -12.031683,14.70269 -12.109918,14.71664 -0.03675,0.007 -7.917521,-1.76915 -17.512831,-3.946 z"
    />
    <path
       style="fill:#e5a02a;fill-opacity:1"
       d="m 223.7993,612.53524 c -25.11767,-4.32704 -47.02727,-12.83074 -67.14684,-26.06147 -10.61669,-6.98159 -17.86336,-12.94889 -27.79705,-22.88961 -10.27095,-10.27821 -18.10556,-19.84584 -26.26827,-32.07884 -3.087297,-4.62677 -7.586944,-11.89133 -8.706854,-14.057 l -0.529514,-1.02397 5.363739,-2.89275 c 4.706339,-2.5382 5.518049,-2.86612 6.622789,-2.67551 0.69248,0.11947 31.01056,7.10723 67.37353,15.52834 l 66.11448,15.31112 11.56624,23.48542 c 6.36144,12.91698 11.53215,23.66543 11.49049,23.88543 -0.0417,0.22001 -6.80596,5.82825 -15.03177,12.46276 -12.8728,10.38254 -15.1135,12.05915 -16.08668,12.0369 -0.62186,-0.0142 -3.7558,-0.47809 -6.96429,-1.03082 z"
       transform="scale(0.26458333)"
    />
  </g>
</svg>
