<svg xmlns="http://www.w3.org/2000/svg" xml:space="preserve" width="381.422" height="386.538" viewBox="0 0 100.918 102.272"><path d="M39.92 88.349c-5.195-4.167-9.473-7.62-9.508-7.673-.073-.111.742-1.145 2.382-3.02 1.174-1.343 3.67-3.894 4.954-5.063 5.568-5.067 11.7-8.638 18.147-10.57 6.2-1.856 12.68-2.328 19.775-1.44 1.79.224 5.885.974 6.012 1.1.028.029.491 6.546.497 7.004.002.1-12.14 20.857-12.278 20.991-.008.007-4.503 1.374-9.988 3.036a4512 4512 0 0 0-10.261 3.116l-.287.094z" style="display:inline;fill:#e5a02a;fill-opacity:1" transform="translate(-20.327 -60.115)"/><path d="M68.413 161.514c-2.073-.154-2.332.23 2.26-3.347 2.204-1.717 4.007-3.17 4.007-3.227 0-.058-1.435-3.062-3.19-6.677s-3.169-6.628-3.142-6.698c.027-.069 2.706-3.208 5.954-6.975l5.905-6.85-3.74-16.38-3.74-16.381 6.33-10.858c4.563-7.824 6.339-10.948 6.358-11.184.014-.18-.137-1.759-.337-3.508s-.352-3.193-.34-3.209c.046-.056 5.551 1.852 6.827 2.367 4.178 1.683 8.227 4.183 12.722 7.855 2.207 1.802 3.671 3.26 5.646 5.618 5.772 6.892 9.276 14.967 10.86 25.02.524 3.325.541 8.43.042 12.442-.623 5.007-2.172 10.08-4.499 14.73-.763 1.526-.879 1.737-1.791 3.277-2.295 3.873-5.517 7.976-9.04 11.512-3.454 3.466-9.157 7.077-14.507 9.185-4.284 1.688-8.06 2.61-12.95 3.161-1.61.182-7.8.263-9.635.127" style="display:inline;fill:#00796b;fill-opacity:1" transform="translate(-20.327 -60.115)"/><path d="M46.537 135.744c-9.595-2.177-17.548-3.961-17.672-3.965-.124-.003-.905.347-1.735.778l-1.51.784-.263-.667c-1.63-4.134-2.316-6.077-3.093-8.758-3.251-11.224-2.337-21.515 2.954-33.255 1.007-2.234 3.418-6.858 3.77-7.228.089-.094 2.131 1.518 9.872 7.788 5.368 4.348 9.786 7.905 9.818 7.904.031-.001 4.539-1.472 10.017-3.27 5.477-1.797 9.965-3.259 9.973-3.249.078.103 7.526 32.284 7.492 32.367-.07.165-12.032 14.703-12.11 14.717-.037.007-7.918-1.77-17.513-3.946" style="display:inline;fill:#6ba085;fill-opacity:1" transform="translate(-20.327 -60.115)"/><path d="M223.8 612.535c-25.118-4.327-47.028-12.83-67.148-26.061-10.616-6.982-17.863-12.95-27.797-22.89-10.27-10.278-18.105-19.846-26.268-32.079C99.5 526.88 95 519.614 93.88 517.448l-.53-1.024 5.365-2.892c4.706-2.539 5.518-2.867 6.622-2.676.693.12 31.01 7.107 67.374 15.528l66.114 15.312 11.567 23.485c6.361 12.917 11.532 23.665 11.49 23.885s-6.806 5.829-15.032 12.463c-12.873 10.383-15.113 12.06-16.086 12.037-.622-.014-3.756-.478-6.965-1.03" style="fill:#e5a02a;fill-opacity:1" transform="matrix(.26458 0 0 .26458 -20.327 -60.115)"/></svg>